<svg width="262" height="49" viewBox="0 0 262 49" fill="none" xmlns="http://www.w3.org/2000/svg">
<path d="M3.96 39V16.44C3.96 14.2 4.61333 12.4133 5.92 11.08C7.25333 9.72 9.14667 9.04 11.6 9.04C12.48 9.04 13.3067 9.13333 14.08 9.32C14.88 9.50667 15.5467 9.8 16.08 10.2L14.72 13.96C14.3467 13.6667 13.92 13.4533 13.44 13.32C12.96 13.16 12.4667 13.08 11.96 13.08C10.92 13.08 10.1333 13.3733 9.6 13.96C9.06667 14.52 8.8 15.3733 8.8 16.52V18.92L8.96 21.16V39H3.96ZM0.44 21.8V17.8H14.68V21.8H0.44ZM18.0847 39V17.64H22.8447V23.52L22.2847 21.8C22.9247 20.36 23.9247 19.2667 25.2847 18.52C26.6714 17.7733 28.3914 17.4 30.4447 17.4V22.16C30.2314 22.1067 30.0314 22.08 29.8447 22.08C29.658 22.0533 29.4714 22.04 29.2847 22.04C27.3914 22.04 25.8847 22.6 24.7647 23.72C23.6447 24.8133 23.0847 26.4533 23.0847 28.64V39H18.0847ZM44.0909 39.28C41.9043 39.28 39.9576 38.8133 38.2509 37.88C36.5443 36.92 35.1976 35.6133 34.2109 33.96C33.2243 32.3067 32.7309 30.4267 32.7309 28.32C32.7309 26.1867 33.2243 24.3067 34.2109 22.68C35.1976 21.0267 36.5443 19.7333 38.2509 18.8C39.9576 17.8667 41.9043 17.4 44.0909 17.4C46.3043 17.4 48.2643 17.8667 49.9709 18.8C51.7043 19.7333 53.0509 21.0133 54.0109 22.64C54.9976 24.2667 55.4909 26.16 55.4909 28.32C55.4909 30.4267 54.9976 32.3067 54.0109 33.96C53.0509 35.6133 51.7043 36.92 49.9709 37.88C48.2643 38.8133 46.3043 39.28 44.0909 39.28ZM44.0909 35C45.3176 35 46.4109 34.7333 47.3709 34.2C48.3309 33.6667 49.0776 32.8933 49.6109 31.88C50.1709 30.8667 50.4509 29.68 50.4509 28.32C50.4509 26.9333 50.1709 25.7467 49.6109 24.76C49.0776 23.7467 48.3309 22.9733 47.3709 22.44C46.4109 21.9067 45.3309 21.64 44.1309 21.64C42.9043 21.64 41.8109 21.9067 40.8509 22.44C39.9176 22.9733 39.1709 23.7467 38.6109 24.76C38.0509 25.7467 37.7709 26.9333 37.7709 28.32C37.7709 29.68 38.0509 30.8667 38.6109 31.88C39.1709 32.8933 39.9176 33.6667 40.8509 34.2C41.8109 34.7333 42.8909 35 44.0909 35ZM72.3922 17.4C74.0989 17.4 75.6189 17.7333 76.9522 18.4C78.3122 19.0667 79.3789 20.0933 80.1522 21.48C80.9255 22.84 81.3122 24.6 81.3122 26.76V39H76.3122V27.4C76.3122 25.5067 75.8589 24.0933 74.9522 23.16C74.0722 22.2267 72.8322 21.76 71.2322 21.76C70.0589 21.76 69.0189 22 68.1122 22.48C67.2055 22.96 66.4989 23.68 65.9922 24.64C65.5122 25.5733 65.2722 26.76 65.2722 28.2V39H60.2722V17.64H65.0322V23.4L64.1922 21.64C64.9389 20.28 66.0189 19.24 67.4322 18.52C68.8722 17.7733 70.5255 17.4 72.3922 17.4ZM95.695 39.28C93.3483 39.28 91.535 38.68 90.255 37.48C88.975 36.2533 88.335 34.4533 88.335 32.08V12.92H93.335V31.96C93.335 32.9733 93.5883 33.76 94.095 34.32C94.6283 34.88 95.3617 35.16 96.295 35.16C97.415 35.16 98.3483 34.8667 99.095 34.28L100.495 37.84C99.9083 38.32 99.1883 38.68 98.335 38.92C97.4817 39.16 96.6017 39.28 95.695 39.28ZM84.815 21.8V17.8H99.055V21.8H84.815Z" fill="#888888"/>
<path d="M108.12 39.28C106.307 39.28 104.693 38.88 103.28 38.08C101.867 37.28 100.747 36.08 99.92 34.48C99.12 32.8533 98.72 30.8 98.72 28.32C98.72 25.8133 99.1333 23.76 99.96 22.16C100.813 20.56 101.947 19.3733 103.36 18.6C104.8 17.8 106.387 17.4 108.12 17.4C110.227 17.4 112.08 17.8533 113.68 18.76C115.307 19.6667 116.587 20.9333 117.52 22.56C118.48 24.1867 118.96 26.1067 118.96 28.32C118.96 30.5333 118.48 32.4533 117.52 34.08C116.587 35.7067 115.307 36.9867 113.68 37.92C112.08 38.8267 110.227 39.28 108.12 39.28ZM96.28 39V9.32H101.28V22.6L100.88 28.28L101.04 33.96V39H96.28ZM107.56 35C108.76 35 109.827 34.7333 110.76 34.2C111.72 33.6667 112.48 32.8933 113.04 31.88C113.6 30.8667 113.88 29.68 113.88 28.32C113.88 26.9333 113.6 25.7467 113.04 24.76C112.48 23.7467 111.72 22.9733 110.76 22.44C109.827 21.9067 108.76 21.64 107.56 21.64C106.36 21.64 105.28 21.9067 104.32 22.44C103.36 22.9733 102.6 23.7467 102.04 24.76C101.48 25.7467 101.2 26.9333 101.2 28.32C101.2 29.68 101.48 30.8667 102.04 31.88C102.6 32.8933 103.36 33.6667 104.32 34.2C105.28 34.7333 106.36 35 107.56 35ZM133.302 39.28C131.115 39.28 129.169 38.8133 127.462 37.88C125.755 36.92 124.409 35.6133 123.422 33.96C122.435 32.3067 121.942 30.4267 121.942 28.32C121.942 26.1867 122.435 24.3067 123.422 22.68C124.409 21.0267 125.755 19.7333 127.462 18.8C129.169 17.8667 131.115 17.4 133.302 17.4C135.515 17.4 137.475 17.8667 139.182 18.8C140.915 19.7333 142.262 21.0133 143.222 22.64C144.209 24.2667 144.702 26.16 144.702 28.32C144.702 30.4267 144.209 32.3067 143.222 33.96C142.262 35.6133 140.915 36.92 139.182 37.88C137.475 38.8133 135.515 39.28 133.302 39.28ZM133.302 35C134.529 35 135.622 34.7333 136.582 34.2C137.542 33.6667 138.289 32.8933 138.822 31.88C139.382 30.8667 139.662 29.68 139.662 28.32C139.662 26.9333 139.382 25.7467 138.822 24.76C138.289 23.7467 137.542 22.9733 136.582 22.44C135.622 21.9067 134.542 21.64 133.342 21.64C132.115 21.64 131.022 21.9067 130.062 22.44C129.129 22.9733 128.382 23.7467 127.822 24.76C127.262 25.7467 126.982 26.9333 126.982 28.32C126.982 29.68 127.262 30.8667 127.822 31.88C128.382 32.8933 129.129 33.6667 130.062 34.2C131.022 34.7333 132.102 35 133.302 35ZM159.083 39.28C156.896 39.28 154.95 38.8133 153.243 37.88C151.536 36.92 150.19 35.6133 149.203 33.96C148.216 32.3067 147.723 30.4267 147.723 28.32C147.723 26.1867 148.216 24.3067 149.203 22.68C150.19 21.0267 151.536 19.7333 153.243 18.8C154.95 17.8667 156.896 17.4 159.083 17.4C161.296 17.4 163.256 17.8667 164.963 18.8C166.696 19.7333 168.043 21.0133 169.003 22.64C169.99 24.2667 170.483 26.16 170.483 28.32C170.483 30.4267 169.99 32.3067 169.003 33.96C168.043 35.6133 166.696 36.92 164.963 37.88C163.256 38.8133 161.296 39.28 159.083 39.28ZM159.083 35C160.31 35 161.403 34.7333 162.363 34.2C163.323 33.6667 164.07 32.8933 164.603 31.88C165.163 30.8667 165.443 29.68 165.443 28.32C165.443 26.9333 165.163 25.7467 164.603 24.76C164.07 23.7467 163.323 22.9733 162.363 22.44C161.403 21.9067 160.323 21.64 159.123 21.64C157.896 21.64 156.803 21.9067 155.843 22.44C154.91 22.9733 154.163 23.7467 153.603 24.76C153.043 25.7467 152.763 26.9333 152.763 28.32C152.763 29.68 153.043 30.8667 153.603 31.88C154.163 32.8933 154.91 33.6667 155.843 34.2C156.803 34.7333 157.883 35 159.083 35ZM181.864 39.28C180.078 39.28 178.358 39.0533 176.704 38.6C175.078 38.12 173.784 37.5467 172.824 36.88L174.744 33.08C175.704 33.6933 176.851 34.2 178.184 34.6C179.518 35 180.851 35.2 182.184 35.2C183.758 35.2 184.891 34.9867 185.584 34.56C186.304 34.1333 186.664 33.56 186.664 32.84C186.664 32.2533 186.424 31.8133 185.944 31.52C185.464 31.2 184.838 30.96 184.064 30.8C183.291 30.64 182.424 30.4933 181.464 30.36C180.531 30.2267 179.584 30.0533 178.624 29.84C177.691 29.6 176.838 29.2667 176.064 28.84C175.291 28.3867 174.664 27.7867 174.184 27.04C173.704 26.2933 173.464 25.3067 173.464 24.08C173.464 22.72 173.851 21.5467 174.624 20.56C175.398 19.5467 176.478 18.7733 177.864 18.24C179.278 17.68 180.944 17.4 182.864 17.4C184.304 17.4 185.758 17.56 187.224 17.88C188.691 18.2 189.904 18.6533 190.864 19.24L188.944 23.04C187.931 22.4267 186.904 22.0133 185.864 21.8C184.851 21.56 183.838 21.44 182.824 21.44C181.304 21.44 180.171 21.6667 179.424 22.12C178.704 22.5733 178.344 23.1467 178.344 23.84C178.344 24.48 178.584 24.96 179.064 25.28C179.544 25.6 180.171 25.8533 180.944 26.04C181.718 26.2267 182.571 26.3867 183.504 26.52C184.464 26.6267 185.411 26.8 186.344 27.04C187.278 27.28 188.131 27.6133 188.904 28.04C189.704 28.44 190.344 29.0133 190.824 29.76C191.304 30.5067 191.544 31.48 191.544 32.68C191.544 34.0133 191.144 35.1733 190.344 36.16C189.571 37.1467 188.464 37.92 187.024 38.48C185.584 39.0133 183.864 39.28 181.864 39.28ZM203.89 39.28C201.544 39.28 199.73 38.68 198.45 37.48C197.17 36.2533 196.53 34.4533 196.53 32.08V12.92H201.53V31.96C201.53 32.9733 201.784 33.76 202.29 34.32C202.824 34.88 203.557 35.16 204.49 35.16C205.61 35.16 206.544 34.8667 207.29 34.28L208.69 37.84C208.104 38.32 207.384 38.68 206.53 38.92C205.677 39.16 204.797 39.28 203.89 39.28ZM193.01 21.8V17.8H207.25V21.8H193.01Z" fill="url(#paint0_linear_1_19)"/>
<path d="M228.125 14.025L218 25.5L228.125 36.3" stroke="url(#paint1_linear_1_19)" stroke-width="4"/>
<path d="M236.9 39L245 12" stroke="url(#paint2_linear_1_19)" stroke-width="4"/>
<path d="M249.725 14.025L259.175 25.5L249.725 36.3" stroke="url(#paint3_linear_1_19)" stroke-width="4"/>
<defs>
<linearGradient id="paint0_linear_1_19" x1="96.5" y1="26" x2="210" y2="26" gradientUnits="userSpaceOnUse">
<stop stop-color="#B3B3B3"/>
<stop offset="1" stop-color="white"/>
</linearGradient>
<linearGradient id="paint1_linear_1_19" x1="223.062" y1="14.025" x2="223.062" y2="36.3" gradientUnits="userSpaceOnUse">
<stop stop-color="#830098"/>
<stop offset="1" stop-color="#4A006D"/>
</linearGradient>
<linearGradient id="paint2_linear_1_19" x1="240.95" y1="12" x2="240.95" y2="39" gradientUnits="userSpaceOnUse">
<stop stop-color="#830098"/>
<stop offset="1" stop-color="#4A006D"/>
</linearGradient>
<linearGradient id="paint3_linear_1_19" x1="254.45" y1="14.025" x2="254.45" y2="36.3" gradientUnits="userSpaceOnUse">
<stop stop-color="#830098"/>
<stop offset="1" stop-color="#4A006D"/>
</linearGradient>
</defs>
</svg>
